<svg width="100%" height="100%" id="svg" viewBox="0 0 1440 590" xmlns="http://www.w3.org/2000/svg" class="transition duration-300 ease-in-out delay-150"><defs><linearGradient id="gradient" x1="0%" y1="50%" x2="100%" y2="50%"><stop offset="5%" stop-color="#F78DA7"></stop><stop offset="95%" stop-color="#8ED1FC"></stop></linearGradient></defs><path d="M 0,600 L 0,150 C 111.03571428571428,124.57142857142857 222.07142857142856,99.14285714285714 347,83 C 471.92857142857144,66.85714285714286 610.7499999999999,60.000000000000014 738,87 C 865.2500000000001,113.99999999999999 980.9285714285716,174.85714285714283 1096,191 C 1211.0714285714284,207.14285714285717 1325.5357142857142,178.57142857142858 1440,150 L 1440,600 L 0,600 Z" stroke="none" stroke-width="0" fill="url(#gradient)" fill-opacity="0.53" class="transition-all duration-300 ease-in-out delay-150 path-0"></path><defs><linearGradient id="gradient" x1="0%" y1="50%" x2="100%" y2="50%"><stop offset="5%" stop-color="#F78DA7"></stop><stop offset="95%" stop-color="#8ED1FC"></stop></linearGradient></defs><path d="M 0,600 L 0,350 C 108.82142857142858,354.8928571428571 217.64285714285717,359.7857142857143 352,370 C 486.35714285714283,380.2142857142857 646.25,395.75 774,395 C 901.75,394.25 997.3571428571429,377.2142857142857 1103,367 C 1208.642857142857,356.7857142857143 1324.3214285714284,353.3928571428571 1440,350 L 1440,600 L 0,600 Z" stroke="none" stroke-width="0" fill="url(#gradient)" fill-opacity="1" class="transition-all duration-300 ease-in-out delay-150 path-1"></path></svg>